<?xml version="1.0" encoding="UTF-8"?>
<svg id="OBJECTS" xmlns="http://www.w3.org/2000/svg" viewBox="0 0 308.11 297.13">
  <defs>
    <style>
      .cls-1 {
        fill: #f3b900;
      }

      .cls-2 {
        fill: #ffdf4b;
      }

      .cls-3 {
        fill: #fff;
      }

      .cls-4 {
        fill: #ffce00;
      }

      .cls-5 {
        fill: #fede4c;
      }

      .cls-6 {
        fill: #ffb77e;
      }

      .cls-7 {
        fill: #ff2f00;
      }

      .cls-8 {
        fill: #ff6f00;
      }

      .cls-9 {
        fill: #c84b00;
      }
    </style>
  </defs>
  <g>
    <path class="cls-4" d="m23.17,217.84c-.53.25-.93.44-1.33.63-1.74.84-3.44,1.78-5.23,2.48-2.63,1.04-5.35.89-8.07.25-2.09-.5-3.15-1.9-3.38-3.96-.08-.72-.02-1.47.06-2.19.38-3.42,1.5-6.62,2.92-9.72,3.02-6.61,7.12-12.49,12.07-17.8.77-.83,1.54-1.66,2.29-2.51.17-.19.27-.44.39-.64-.37-.41-.67-.13-.94-.01-1.46.64-2.91,1.33-4.39,1.94-2.51,1.04-4.95.77-7.33-.45-1.82-.93-2.47-2.06-2.11-4.05.2-1.1.56-2.2.99-3.24,1.18-2.87,3.02-5.32,5-7.68,1.16-1.38,2.37-2.71,3.58-4.04,1.7-1.89,3.6-3.56,5.55-5.18,2.2-1.83,4.4-3.67,6.61-5.49,5.31-4.39,11.02-8.21,17.19-11.27,5.68-2.82,11.56-5.15,17.68-6.87,7-1.98,14.08-3.58,21.25-4.75,2.76-.45,5.54-.76,8.32-1.12,1.92-.24,3.84-.45,5.75-.67.33-.04.66-.08.99-.1,3.13-.19,6.25-.33,9.38-.55,10.25-.73,20.52-.48,30.78-.5,4.53,0,9.05.33,13.58.52.27.01.53.03.8.04,4.86.13,9.72.32,14.59.37,4.8.05,9.6-.03,14.4-.07,4.4-.04,8.78-.45,13.16-.86,4.78-.44,9.53-1.14,14.22-2.12,4.7-.98,9.28-2.42,13.83-3.97.56-.19,1.12-.45,1.61-.78,6.19-4.06,12.27-8.27,17.87-13.14,1.21-1.05,2.32-2.21,3.44-3.34,3.33-3.36,6.63-6.75,9.96-10.12,1.98-2,4.12-3.79,6.51-5.28,1.19-.74,2.4-1.44,3.76-1.84.92-.28,1.82-.31,2.76-.1,1.58.36,3.02,1.04,4.35,1.95.96.65,1.42,1.55,1.47,2.69.06,1.22-.11,2.4-.52,3.54-.94,2.64-1.91,5.26-2.85,7.9-.13.35-.44.68-.13,1.24.38-.41.73-.78,1.06-1.16,2.05-2.37,4.27-4.57,6.65-6.62,2.86-2.46,5.86-2.77,9.28-1.29,2.47,1.07,4.06,2.73,4.61,5.35.19.91.32,1.84.37,2.77.17,3.34-.05,6.66-.5,9.97-.59,4.36-1.14,8.72-1.75,13.08-.39,2.84-.86,5.66-1.29,8.5-.46,3.03-.89,6.06-1.36,9.09-.17,1.08-.08,2.12.32,3.14,1.06,2.66,2.06,5.35,3.18,7.99,1.93,4.54,3.94,9.04,5.89,13.57.76,1.77,1.51,3.56,2.12,5.39,1.62,4.8,3.09,9.65,4.06,14.63.64,3.27,1.1,6.57,1.19,9.91.02.8.11,1.59.17,2.39.03.4.12.8.09,1.19-.28,3.45-.2,6.92-.84,10.35-1.11,5.97-2.37,11.9-4.12,17.72-2.82,9.41-7.01,18.13-13.19,25.84-3.49,4.36-7.64,7.98-12.14,11.23-4.55,3.28-9.4,6.05-14.33,8.74-5.52,3.01-11.24,5.51-17.06,7.85-4.47,1.8-9.12,3-13.85,3.82-4.27.74-8.55,1.4-12.83,2.02-2.83.41-5.69.68-8.53.99-3.57.4-7.15.8-10.73,1.15-2.32.23-4.65.38-6.97.57-2.92.24-5.84.47-8.76.71-.33.03-.66.08-1,.09-4.93.19-9.85.41-14.78.54-4.13.11-8.27.07-12.4.14-3.86.07-7.72.11-11.59.3-5.06.25-10.13.16-15.2.14-3.53-.01-7.06-.1-10.59-.25-3.73-.15-7.45-.37-11.17-.62-9.01-.59-17.86-2.24-26.53-4.7-6.6-1.87-13.26-3.57-19.63-6.2-5.87-2.43-11.51-5.26-16.71-8.94-8.48-6-14.77-13.77-18.97-23.25-1.63-3.67-2.94-7.45-3.74-11.38-1.35-6.68-1.35-13.37.1-20.05.21-.98.42-1.95.61-2.94.05-.24,0-.5,0-.93Z"/>
    <g>
      <path class="cls-2" d="m272.01,90.03c-.48.57-.74.93-1.06,1.23-3.95,3.79-7.65,7.8-11.17,11.98-3.48,4.13-7.22,8.02-11.14,11.74-4.66,4.42-9.8,8.22-15.48,11.24-2.17,1.15-4.45,2.13-6.76,2.97-2.94,1.07-5.93,2.01-9,2.66-3,.63-5.97,1.37-9.02,1.72-.92.11-1.85.26-2.78.27-3,.04-6,.05-9,.03-.79,0-1.6-.09-2.38-.25-1.76-.36-3.51-.77-5.25-1.21-.63-.16-1.22-.46-1.82-.69.1-.62.51-.49.79-.51,2.72-.19,5.46-.28,8.17-.55,4.37-.44,8.73-1.02,13.06-1.79,5.53-.98,10.85-2.71,16.19-4.38.81-.26,1.61-.67,2.32-1.14,5.04-3.37,10.07-6.76,14.75-10.63,1.64-1.36,3.25-2.76,4.76-4.26,3.83-3.8,7.55-7.72,11.41-11.49,1.71-1.67,3.6-3.17,5.5-4.62,1.05-.8,2.27-1.39,3.45-2,1.29-.67,2.66-.74,4.45-.33Z"/>
      <path class="cls-2" d="m69.82,136.95c-.8,1.23-1.6,2.01-2.53,2.63-1.49,1-2.98,2.03-4.56,2.88-2.35,1.25-4.63,2.62-6.89,4.05-2.75,1.75-5.64,3.3-8.49,4.87-5.01,2.77-10.06,5.48-15.08,8.24-3.12,1.72-5.76,4.06-8.39,6.42-5.29,4.75-9.49,10.43-13.6,16.18-.35.49-.67,1-1.05,1.46-.15.18-.42.26-.59.36-.6-.32-.59-.81-.6-1.27-.02-1.22.3-2.38.76-3.49.74-1.79,1.64-3.5,2.79-5.07,2.53-3.45,5.36-6.64,8.39-9.64,1.32-1.31,2.81-2.45,4.25-3.64,2.77-2.29,5.52-4.62,8.35-6.84,4.73-3.72,9.82-6.89,15.23-9.52,6.73-3.27,13.75-5.79,21.04-7.55.19-.04.38-.03.98-.08Z"/>
      <path class="cls-2" d="m24.19,183.76c.03.57.11.89.04,1.17-.3,1.39-.96,2.61-1.69,3.82-2.02,3.36-4.06,6.71-6.03,10.11-.73,1.26-1.34,2.61-1.89,3.96-2.21,5.37-3.94,10.89-4.8,16.66-.26,1.78-1.13,1.94-2.49,1.21-.98-.53-1.72-1.31-1.95-2.41-.18-.9-.31-1.85-.22-2.76.24-2.46.81-4.85,1.71-7.17,2.52-6.45,6.05-12.3,10.54-17.56,1.77-2.07,3.67-4.04,5.53-6.03.3-.32.68-.55,1.24-.99Z"/>
      <path class="cls-2" d="m267.8,115.98c.13-.5.13-.85.3-1.08.7-.96,1.46-1.89,2.19-2.82.82-1.04,1.7-2.04,2.45-3.13,2.66-3.86,5.84-7.23,9.54-10.09.88-.67,1.97-1.07,2.99-1.55.27-.13.61-.09.98-.13.02.31.1.52.03.68-.21.49-.42.98-.71,1.42-1.63,2.5-3.29,4.99-4.94,7.48-.89,1.35-2.04,2.43-3.34,3.39-1.6,1.18-3.18,2.4-4.76,3.6-1.06.81-2.16,1.55-3.43,1.99-.35.12-.73.14-1.3.23Z"/>
    </g>
    <g>
      <path class="cls-1" d="m50.52,279.47c1.02.22,2.04.47,3.06.66,4.38.84,8.77,1.69,13.16,2.47,3.21.57,6.44,1.09,9.67,1.53,2.84.38,5.69.62,8.54.92,3.18.33,6.36.66,9.54.98.73.07,1.46.09,2.19.15,2.19.19,4.38.39,6.56.58,2.12.18,4.25.36,6.37.53,1.92.15,3.85.29,5.78.44,2.85.21,5.72.34,8.56.67,3.32.39,6.65.29,9.98.42,2.73.1,5.45.36,8.17.55.4.03.8.06,1.2.06,4.6,0,9.19.2,13.78.25,7.4.09,14.8-.05,22.19-.24,4.59-.12,9.18-.49,13.76-.78.93-.06,1.84-.27,2.77-.38,2.58-.29,5.17-.51,7.75-.84,1.78-.23,3.55-.56,5.32-.89,2.82-.52,5.63-1.06,8.44-1.61,1.04-.21,2.08-.49,3.11-.73,6.75-1.59,13.4-3.52,20-5.64,1.97-.63,3.98-1.13,5.91-1.86,4.71-1.78,8.93-4.47,13-7.39,5.21-3.75,9.94-8.07,14.23-12.84,3.48-3.87,6.53-8.09,9.14-12.6,2.8-4.86,5.32-9.85,7.25-15.12.43-1.19.85-2.39,1.17-3.61,1.21-4.51,2.26-9.06,2.89-13.68.51-3.76.92-7.54.95-11.34.02-2.73.29-5.46.21-8.19-.13-4.26-.45-8.51-.71-12.76-.14-2.33-.36-4.65-.5-6.97-.34-5.59-1.04-11.14-1.95-16.66-.22-1.31-.44-2.63-.65-3.94-.05-.29-.04-.59.2-.94.13.28.28.56.4.85,2.58,6.58,5.37,13.07,8.31,19.5,1.47,3.22,2.65,6.55,3.63,9.95,1.27,4.42,2.56,8.83,3.22,13.4.49,3.37.69,6.75.78,10.15.14,5.3-.48,10.5-1.63,15.66-1.02,4.55-2,9.12-3.4,13.57-2.87,9.11-6.96,17.58-12.94,25.09-3.01,3.79-6.53,7.02-10.38,9.91-4.91,3.69-10.04,7.03-15.58,9.73-1.32.64-2.55,1.45-3.85,2.12-5.94,3.06-12.08,5.63-18.42,7.72-3.87,1.28-7.88,2-11.9,2.63-4.41.69-8.82,1.36-13.24,1.96-3.1.42-6.22.7-9.33,1.03-3.64.39-7.28.78-10.93,1.14-1.86.18-3.72.31-5.58.44-2.92.2-5.85.37-8.77.57-10.12.7-20.26.35-30.38.72-5.66.2-11.32.36-16.99.35-6.26-.02-12.53-.07-18.79-.3-7.73-.28-15.42-1.05-23.01-2.56-5.69-1.13-11.33-2.45-16.86-4.25-1.84-.6-3.7-1.13-5.56-1.65-5.03-1.39-9.84-3.34-14.51-5.65-1.43-.71-2.86-1.43-4.29-2.16-.4-.21-.77-.47-1.16-.71.04-.13.07-.26.11-.39Z"/>
      <path class="cls-1" d="m83.37,140.07c.36.11.74.18,1.09.33,1.9.81,3.78,1.67,5.69,2.45,6.95,2.82,14.19,4.58,21.6,5.64,5.37.77,10.75.77,16.15.72,5.29-.05,10.49-.79,15.64-1.91,1.94-.42,3.81-1.18,5.73-1.75,4.81-1.42,9.45-3.27,13.89-5.58,3.73-1.94,7.31-4.13,10.68-6.65.43-.32.86-.63,1.32-.9.5-.29,1.12-.01,1.21.59.07.44.05.94-.11,1.35-.18.49-.51.94-.85,1.34-3.11,3.65-6.21,7.32-9.7,10.62-4.1,3.87-8.74,6.94-13.92,9.25-5.17,2.3-10.59,3.6-16.16,4.31-2.24.29-4.52.47-6.77.42-2.39-.06-4.78-.36-7.15-.72-4.55-.69-9.02-1.81-13.43-3.11-5.25-1.55-10.26-3.77-15.1-6.32-2.68-1.41-4.99-3.3-6.79-5.78-.7-.97-1.57-1.81-2.35-2.72-.33-.39-.63-.82-.94-1.23.08-.12.17-.23.25-.35Z"/>
      <path class="cls-1" d="m290.68,145.85c-.22-.16-.57-.29-.71-.53-.36-.63-.73-1.28-.92-1.98-.82-2.98-1.18-6.01-.81-9.1.09-.73.14-1.46.17-2.19.11-2.53.25-5.06.28-7.59.02-1.59-.11-3.19-.18-4.79-.02-.4-.1-.8-.11-1.19-.04-3.96-.81-7.82-1.59-11.67-.61-3.01-.88-6.06-1.17-9.11-.01-.12.06-.25.09-.38.38-.51.94-.48,1.46-.42,1.87.22,3.65.8,5.27,1.76,1.49.89,2.46,2.24,2.9,3.92.22.84.47,1.7.48,2.55.04,2.46.16,4.95-.09,7.38-.6,5.63-1.38,11.24-2.13,16.85-.33,2.44-.78,4.87-1.14,7.31-.38,2.57-.73,5.14-1.09,7.72-.07.52-.08,1.08-.72,1.46Z"/>
      <path class="cls-1" d="m6.9,220.22c.33-.25.65-.58,1.04-.77,5.13-2.47,9.85-5.58,14.26-9.17,2.32-1.89,4.54-3.91,6.83-5.86.81-.69,1.66-1.33,2.52-1.95.11-.08.42-.04.54.06.11.1.19.38.13.52-.19.42-.45.82-.7,1.2-2.75,4.18-5.51,8.34-8.23,12.53-.64.98-1.39,1.77-2.45,2.28-1.14.55-2.26,1.15-3.42,1.65-2.93,1.25-5.96,1.25-9.02.55-.57-.13-1.19-.24-1.48-1.05Z"/>
      <path class="cls-1" d="m266.37,115.6c.21-.74.3-1.19.46-1.62,1.03-2.75,1.8-5.57,2.33-8.46.29-1.57.74-3.11,1.05-4.68.66-3.3.57-6.62.15-9.94-.04-.32-.05-.65-.08-1.1.42-.07.8-.23,1.15-.17,1.68.26,3.15,1.02,4.55,1.96,1.18.8,1.62,1.93,1.41,3.29-.17,1.05-.46,2.08-.74,3.11-.34,1.22-.73,2.42-1.08,3.64-.5,1.74-1.25,3.36-2.15,4.93-1.23,2.13-2.37,4.32-3.47,6.52-.57,1.13-1.35,1.97-2.52,2.42-.22.09-.49.05-1.05.1Z"/>
      <path class="cls-1" d="m9.32,185.29c.79-.37,1.25-.62,1.73-.8,5.85-2.24,11.59-4.74,17.1-7.74,1.7-.92,3.39-1.85,5.1-2.75.4-.21.84-.34,1.21-.49.39.34.19.57,0,.74-2.29,2.03-4.59,4.06-6.88,6.08-.25.22-.54.41-.75.66-1.47,1.73-3.43,2.72-5.42,3.65-.72.33-1.48.6-2.25.81-1.54.41-3.12.71-4.65,1.15-1.84.53-3.37-.03-5.17-1.31Z"/>
    </g>
    <g>
      <path class="cls-4" d="m233.02,233.67c.39.18.61.3.83.37,1.07.36,2.16.68,3.22,1.06,3.05,1.1,5.1,3.28,6.55,6.12,1.12,2.21.98,4.38-.13,6.52-.37.7-.83,1.38-1.35,1.98-1.58,1.81-3.31,3.45-5.25,4.9-5.96,4.45-12.67,7.32-19.72,9.48-4.72,1.44-9.51,2.6-14.37,3.5-3.01.56-6.05.92-9.1,1.22-5.72.56-11.45.54-17.18.38-6.67-.19-13.29-.95-19.82-2.36-11.16-2.42-21.72-6.41-31.42-12.5-1.97-1.24-3.78-2.72-5.63-4.14-4.72-3.63-8.37-8.19-11.41-13.25-.89-1.48-1.69-3.04-2.27-4.66-2.23-6.19-3.5-12.56-3.43-19.18.03-2.89.44-5.71,1.24-8.47.09-.32.21-.63.28-.96,1.02-4.71,3.54-8.58,6.69-12.11,2.82-3.17,6.11-5.74,9.88-7.7,3.11-1.62,6.42-2.57,9.87-3.1,5.91-.91,11.81-.71,17.71.13,6.61.94,13.11,2.39,19.63,3.76,5.61,1.18,11.21,2.39,16.9,3.1,2.31.29,4.65.38,6.96.66,2.86.35,5.72.33,8.59.25,6.22-.19,12.32-1.22,18.31-2.89,4.3-1.19,8.62-2.33,12.94-3.46,3.04-.79,6.15-1.16,9.27-1.42,2.55-.21,5.05.18,7.51.83,2.07.55,3.76,1.69,5.06,3.38,1.18,1.54,2.13,3.22,2.7,5.09.55,1.8.46,3.55-.24,5.28-.61,1.5-1.51,2.81-2.62,3.98-1.7,1.79-3.55,3.43-5.51,4.92-1.17.89-2.35,1.76-3.51,2.65-.31.23-.57.52-1.02.93.46.18.74.31,1.02.4,1.33.41,2.71.7,4,1.23,2.99,1.23,4.92,3.56,6.27,6.43.73,1.57.6,3.11-.19,4.61-.63,1.19-1.48,2.22-2.52,3.07-1.81,1.48-3.69,2.87-5.81,3.87-3.37,1.59-6.79,3.1-10.18,4.65-.88.4-1.85.66-2.76,1.45Z"/>
      <g>
        <path class="cls-5" d="m110.33,192.56c.17-.27.3-.56.51-.79,4.42-4.95,9.76-8.41,16.24-10.06,2.92-.74,5.87-1.12,8.89-1.24,5.63-.22,11.19.24,16.7,1.32,6.54,1.29,13.06,2.67,19.6,3.94,4.38.85,8.78,1.63,13.19,2.33,2.1.33,4.25.28,6.36.57,2.33.31,4.65.23,6.98.28,3.95.08,7.84-.51,11.72-1.09,4.23-.64,8.32-1.86,12.42-3.04,4.29-1.23,8.61-2.38,13.03-3.09,1.9-.31,3.83-.53,5.76-.61,2.47-.1,4.94.19,7.27,1.09,1.11.43,2.14,1.06,3.16,1.69.68.42,1.2,1.03,1.39,1.78-.2.49-.56.48-.88.47-4.8-.07-9.36,1.26-13.92,2.5-5.27,1.44-10.52,2.98-15.79,4.42-4.77,1.3-9.62,2.13-14.54,2.66-3.64.39-7.28.83-10.95.79-7.75-.07-15.43-.74-22.98-2.6-7.51-1.85-15.1-3.3-22.74-4.5-2.9-.45-5.8-.91-8.71-1.16-3.11-.27-6.26-.51-9.37-.38-5.6.24-11.16.82-16.46,2.89-1.68.65-3.4,1.19-5.1,1.76-.49.16-1,.26-1.5.39-.08-.11-.17-.21-.25-.32Z"/>
        <path class="cls-5" d="m217.41,235.86c.65-.93,1.53-1.22,2.44-1.43.78-.18,1.57-.32,2.37-.37,1.53-.1,3.05-.19,4.53-.69.47-.16,1.05-.05,1.58,0,4.49.5,8.47,2.26,12.02,5.02.79.61,1.58,1.23,2.32,1.9,1.31,1.2,1.9,2.71,1.78,4.48-.02.26-.04.56-.17.77-.12.19-.39.34-.62.4-.17.05-.41-.02-.57-.12-2.68-1.55-5.71-2.21-8.53-3.38-1.66-.69-3.31-1.41-4.94-2.17-1.15-.54-2.33-.97-3.59-1.21-2.43-.46-4.81-1.09-7.08-2.09-.54-.24-1.13-.4-1.54-1.13Z"/>
        <path class="cls-5" d="m254.85,217.77c-1.1.09-1.84-.42-2.64-.68-2.96-.99-5.91-2.02-8.87-3.02-2.03-.69-4.16-.86-6.28-1-3.72-.25-7.39-.85-11.02-1.69-.31-.07-.6-.23-.85-.33-.24-.7.22-.96.6-1.18,1.45-.85,3.03-1.38,4.7-1.53,2.25-.21,4.5-.32,6.75-.48.73-.05,1.45-.17,2.18-.23.92-.08,1.85-.16,2.78-.21.55-.03,1.05.07,1.35.64.25.46.76.46,1.2.61,1.44.49,2.95.87,4.3,1.55,2.45,1.23,4.17,3.25,5.4,5.68.18.35.28.75.38,1.13.05.18.01.39.01.76Z"/>
      </g>
      <g>
        <path class="cls-1" d="m105.62,230.45c.77.57,1.15.8,1.49,1.1,2.64,2.37,5.46,4.46,8.55,6.22,2.43,1.38,4.73,2.99,7.1,4.47,8.44,5.27,17.59,8.85,27.18,11.34,4.9,1.27,9.83,2.46,14.86,3.1,3.7.47,7.38,1.12,11.13,1.03.99-.02,2,.22,2.98.17,3.26-.16,6.52-.3,9.76-.62,3.38-.33,6.75-.79,10.1-1.31,2.56-.4,5.11-.94,7.64-1.5,2.54-.56,5.06-1.19,7.56-1.87,1.6-.44,3.17-1.02,4.75-1.54,1.45-.48,2.89-1,4.35-1.47,4.38-1.41,8.69-3.01,12.83-5.03,1.97-.96,3.8-2.2,5.7-3.31.4-.23.81-.45,1.31-.73.28.32.59.56.76.89.89,1.68,1.08,3.45.34,5.21-.43,1.03-.95,2.09-1.68,2.92-1.31,1.5-2.7,2.97-4.24,4.22-3.64,2.95-7.68,5.27-11.98,7.14-5.46,2.38-11.15,4.02-16.92,5.4-4.15.99-8.33,1.84-12.57,2.32-1.98.23-3.98.49-5.97.53-4.99.1-10,.28-14.99.09-13.1-.5-25.77-3.14-37.85-8.3-7.39-3.16-14.32-7.1-20.34-12.5-2.89-2.6-5.34-5.58-7.53-8.78-1.4-2.04-2.67-4.15-3.62-6.43-.3-.72-.62-1.44-.69-2.74Z"/>
        <path class="cls-1" d="m248.92,209.99c.54.29,1.04.48,1.45.79,1.94,1.4,3.28,3.29,4.24,5.46.68,1.53.43,3-.31,4.42-.66,1.26-1.58,2.3-2.68,3.19-1.76,1.43-3.6,2.78-5.66,3.74-3.8,1.78-7.63,3.5-11.47,5.19-.71.31-1.55.46-2.32.45-3.26-.06-6.52-.21-9.78-.33-.2,0-.41-.03-.58-.13-.15-.09-.27-.27-.33-.43-.03-.09.06-.3.15-.33.54-.23,1.1-.61,1.64-.58.92.05,1.7-.25,2.49-.59,2.64-1.15,5.12-2.58,7.41-4.32,2.17-1.65,4.34-3.33,6.45-5.05,2.28-1.86,4.35-3.92,5.85-6.5.74-1.26,1.57-2.47,2.39-3.69.29-.43.65-.81,1.04-1.28Z"/>
        <path class="cls-1" d="m253.79,186.22c.13.04.22.04.25.08,2.27,2.84,3.21,5.94,1.72,9.46-.6,1.43-1.49,2.66-2.56,3.78-1.84,1.93-3.85,3.68-6,5.26-1.18.87-2.38,1.71-3.57,2.56-1.39.12-2.77.27-4.16.35-2.86.16-5.72.29-8.58.4-.57.02-1.37.23-1.6-.45-.31-.89.64-1.02,1.15-1.34,2.49-1.54,5.04-2.99,7.49-4.59,5.63-3.68,10.46-8.22,14.37-13.71.45-.64.79-1.39,1.48-1.79Z"/>
      </g>
    </g>
  </g>
  <g>
    <path class="cls-4" d="m125.49,149.26c-10.12.23-19.71-1.23-29.06-4.16-10.87-3.4-20.75-8.68-29.53-15.98-6.09-5.06-11.38-10.84-15.78-17.42-6.14-9.17-10.13-19.21-11.69-30.13-1.46-10.29-.81-20.46,2.31-30.44,2.92-9.3,7.6-17.58,13.99-24.91,7.91-9.08,17.56-15.66,28.68-20.15,5.64-2.28,11.47-3.91,17.48-4.89C106.58.4,111.28.05,116.02,0c11.94-.11,23.48,2,34.61,6.27,9.73,3.73,18.56,9,26.36,15.97,7.91,7.07,14.18,15.37,18.68,24.95,3.48,7.41,5.7,15.2,6.46,23.4.23,2.46.37,4.92.36,7.38-.04,9.88-2.18,19.29-6.34,28.25-4.02,8.65-9.67,16.08-16.67,22.51-3.94,3.62-8.29,6.69-12.92,9.38-5.97,3.47-12.32,6-18.94,7.94-2.43.71-4.83,1.47-7.33,1.9-5,.86-10.03,1.4-14.8,1.3Z"/>
    <g>
      <path class="cls-1" d="m161.13,141.16c.34-1.11,1.06-1.69,1.77-2.29,2.44-2.08,4.73-4.3,6.73-6.81.21-.26.44-.5.67-.74,2.39-2.44,4.23-5.29,6.15-8.1,2.58-3.76,4.51-7.86,6.4-11.97,1.14-2.47,1.99-5.08,2.89-7.66,1.11-3.21,1.95-6.5,2.69-9.82.79-3.52,1.24-7.08,1.67-10.65.46-3.92.37-7.85.33-11.78-.03-3.21-.51-6.36-1.01-9.52-.83-5.18-2.47-10.08-4.46-14.9-.08-.18-.18-.36-.22-.56-.47-2.34-1.8-4.29-2.97-6.29-2.39-4.09-5.13-7.96-8.23-11.54-3.19-3.68-6.55-7.18-10.3-10.31-4.89-4.08-10.12-7.6-15.9-10.28-1.45-.67-2.94-1.25-4.43-1.83-1.53-.6-2.69-1.63-3.87-3.05.44-.04.67-.12.89-.07.72.14,1.44.3,2.14.49,7.35,2.06,14.38,4.89,20.99,8.72,5.73,3.32,11.04,7.21,15.83,11.79,7.01,6.7,12.7,14.37,16.83,23.15,3.31,7.04,5.45,14.44,6.42,22.17.54,4.32.55,8.65.35,12.97-.2,4.26-.92,8.48-2.03,12.61-1.67,6.21-4.12,12.1-7.41,17.64-3.39,5.71-7.52,10.83-12.34,15.39-5.51,5.21-11.7,9.45-18.5,12.81-.34.17-.7.28-1.06.42Z"/>
      <path class="cls-1" d="m93.7,47.49c-.32-1.51-.87-2.94-1.8-4.19-.53-.71-1.15-1.33-2.08-1.44-2.94-.37-5.55.14-7.44,2.74-1.58,2.16-2.91,4.46-4.01,6.89-.27.6-.54,1.21-.86,1.92-1.08-.44-1.22-.46-1.54.05-.36.56-.72,1.13-.94,1.75-1.11,3.14-2.11,6.31-2.64,9.61-.31,1.91-.48,3.81-.03,5.74.63,2.72,2.23,5.41,6.09,6.05,3.14.53,5.94-.08,8.29-2.36,1.59-1.55,2.92-3.26,3.94-5.24,1.33-2.56,2.19-5.29,2.89-8.07,1.13-4.46,1.07-8.96.12-13.46Z"/>
      <path class="cls-1" d="m79.92,105.62c-.4,5.86-2.43,10.85-6.91,14.66-.45.38-.98.69-1.5.98-2.57,1.45-5.34,2.38-8.22,3.01-1.16.25-2.04.06-2.89-.79-1.61-1.6-1.67-1.77-.29-3.65.35-.48.77-.92,1.15-1.38.76-.92,1.77-1.38,2.92-1.57,1.12-.18,2.24-.36,3.35-.55,1.72-.3,3.32-.97,4.84-1.81.8-.44,1.3-1.09,1.51-2,.28-1.18.44-2.37.29-3.57-.19-1.52-.36-3.05-.72-4.53-1.13-4.61-2.65-9.09-5.1-13.18-1.23-2.05-2.69-3.96-4.1-5.9-1.68-2.32-3.43-4.59-5.12-6.89-1.22-1.66-2.35-3.4-3.62-5.02-2.08-2.63-3.76-5.49-5.32-8.44-.87-1.65-1.73-3.31-2.52-4.99-.34-.71-.55-1.5-.74-2.26-.1-.4.06-.86.47-1,.34-.12.83-.16,1.12,0,.44.25.82.68,1.13,1.09,1.19,1.61,2.3,3.27,3.51,4.86,3.11,4.08,6.25,8.13,9.38,12.19,1.99,2.58,4,5.16,5.99,7.74,1.67,2.16,3.37,4.29,4.99,6.49.74,1.01,1.39,2.11,1.95,3.24.84,1.67,1.6,3.37,2.32,5.09.94,2.22,1.51,4.55,1.98,6.9.09.46.11.92.15,1.29Z"/>
    </g>
    <path class="cls-2" d="m40.47,58.36c-.31-.79-.08-1.43.07-2.05.83-3.44,1.84-6.82,3.16-10.1,2.25-5.6,5.21-10.79,8.81-15.62,4.45-5.98,9.72-11.12,15.8-15.43,9.89-7.03,20.86-11.47,32.77-13.6,3.14-.56,6.31-1.03,9.52-1.08,1.93-.03,3.86-.37,5.78-.31,3.19.09,6.38.37,9.56.58,5.28.34,10.41,1.46,15.52,2.76.88.23,1.79.4,2.55,1.06-.71-.09-1.42-.19-2.14-.26-2.38-.23-4.77-.5-7.16-.66-1.26-.08-2.53,0-3.79.05-1.26.06-2.52.19-3.78.29-2.46.19-4.91.34-7.36.57-1.85.17-3.71.35-5.55.66-2.69.47-5.36,1.02-8.03,1.61-5.8,1.28-11.47,3.03-17.06,5.02-4.85,1.72-9.48,3.95-13.74,6.85-3.36,2.28-6.64,4.69-9.85,7.18-2.36,1.84-4.61,3.82-6.49,6.19-1.16,1.46-2.48,2.78-3.73,4.17-3.58,3.98-6.64,8.33-9.21,13.03-1.28,2.34-2.55,4.68-3.85,7.01-.32.58-.72,1.12-1.12,1.65-.14.18-.4.28-.7.47Z"/>
    <g>
      <path d="m91.84,46.4c-.08-1.41-.31-2.78-.88-4.08-.54-1.25-1.47-2.03-2.83-2.29-2.22-.43-4.25-.15-5.89,1.58-.55.58-1.11,1.16-1.6,1.79-1.85,2.37-3.44,4.92-4.6,7.7-1.69,4.02-2.96,8.14-2.94,12.57.04.8.05,1.6.13,2.39.12,1.2.41,2.36.96,3.45.47.93,1.15,1.7,2.19,1.91,2.5.51,4.92.44,6.96-1.41,1.34-1.22,2.48-2.6,3.43-4.15,2.57-4.22,4.03-8.82,4.76-13.68.29-1.92.41-3.84.31-5.78Z"/>
      <path class="cls-3" d="m86.36,45.45c1.85-.04,2.83,1.05,2.61,2.79-.07.53-.17,1.05-.33,1.56-.79,2.57-2.42,3.79-5.41,3.7-.67-.02-1.12-.36-1.38-.96-.05-.12-.1-.25-.14-.37-.62-2.15.96-5.5,3.02-6.38.24-.1.5-.2.76-.25.33-.06.66-.07.88-.09Z"/>
    </g>
  </g>
  <g>
    <path class="cls-8" d="m36.57,102.86c-.45-.44-.73-.8-1.08-1.05-1.64-1.14-3.3-2.25-4.97-3.35-6.84-4.49-12.94-9.84-18.36-15.95-4.04-4.55-7.62-9.45-9.79-15.21-.61-1.62-1.17-3.26-1.64-4.92-.76-2.73-.99-5.5-.34-8.3.72-3.1,2.78-5.06,5.52-6.43.82-.41,1.67-.27,2.54-.14,2.74.4,5.24,1.48,7.7,2.66,3.32,1.59,6.76,2.84,10.35,3.56,3.46.69,6.99.96,10.52.38,2.79-.46,5.39-.11,7.84,1.47,2.23,1.43,4.15,3.1,5.55,5.36.56.9,1.18,1.78,1.72,2.69,2.34,3.97,5.19,7.59,7.83,11.34,2.92,4.14,5.86,8.26,8.63,12.5,1.78,2.72,3.34,5.61,4.89,8.48,1.28,2.37,2.07,4.93,2.16,7.63.13,3.72-.57,7.28-2.33,10.61-1.52,2.86-3.7,5.04-6.56,6.52-4.29,2.23-8.86,3.54-13.67,4.15-3.77.48-7.54.94-11.34.76-4.59-.22-9.17-.54-13.53-2.19-1.24-.47-2.47-1.02-3.61-1.69-2.77-1.64-3.36-3.29-2.4-6.4.95-3.06,2.63-5.66,5.03-7.8,2.17-1.93,4.58-3.42,7.46-4.05.56-.12,1.1-.37,1.85-.62Z"/>
    <path class="cls-6" d="m47.47,57.22c-.99.77-2.03,1.03-3.05,1.26-3.59.82-7.23,1.19-10.92.95-2.61-.17-5.11-.88-7.62-1.58-3.3-.91-6.39-2.32-9.4-3.91-3.49-1.84-7.06-3.47-10.89-4.48-.42-.11-.81-.36-1.37-.61.27-.37.42-.66.64-.85.94-.77,2.08-.94,3.22-.75,1.5.25,3.01.57,4.46,1.03,1.26.4,2.48.99,3.67,1.57,3.13,1.53,6.39,2.75,9.78,3.46,3.38.71,6.81,1.21,10.31.66,1.44-.23,2.93-.21,4.39-.15.91.04,1.87.25,2.7.64,1.26.59,2.43,1.38,3.62,2.11.15.09.22.31.45.65Z"/>
    <path class="cls-9" d="m40.83,114.51c-2.85-.09-5.65-.17-8.4-.74-1.84-.38-3.59-.99-5.09-2.18-.31-.25-.64-.49-.91-.78-.97-1.03-.98-1.54,0-2.52,2.23-2.27,4.78-4,7.88-4.89,1.27-.37,2.44-.36,3.69.1,3.68,1.34,7.39,2.64,11.1,3.9,2.27.77,4.57,1.42,6.85,2.14.51.16,1.01.33,1.49.57.91.45.94,1.53.04,2.05-.51.29-1.08.52-1.65.67-.96.25-1.94.47-2.93.6-1.84.26-3.69.49-5.54.65-2.19.19-4.38.29-6.52.43Z"/>
    <g>
      <path class="cls-7" d="m35.56,103.5c.28-.26.54-.5.88-.81-.5-.39-.96-.77-1.44-1.1-1.6-1.09-3.2-2.17-4.81-3.23-6.77-4.47-12.8-9.81-18.16-15.87-4.03-4.56-7.56-9.48-9.75-15.24-.85-2.24-1.63-4.51-2.03-6.88-.38-2.26-.32-4.51.21-6.74.06-.25.22-.47.39-.83.21.3.41.48.49.7,1.01,2.82,2.09,5.62,2.99,8.47,1.06,3.33,2.74,6.35,4.52,9.32,1.95,3.27,4.42,6.17,6.75,9.16,5.06,6.5,10.84,12.28,17.24,17.46,3.06,2.48,6.28,4.71,9.85,6.43,1.74.84,3.38,1.86,5.05,2.84.55.33,1.17.63,1.47,1.27-.09.11-.18.29-.25.28-2.36-.33-11.16-3.76-13.39-5.22Z"/>
      <path class="cls-7" d="m72.57,115.71c-.3.7-.79,1.22-1.26,1.75-1.77,1.97-3.97,3.33-6.38,4.36-3.63,1.54-7.39,2.55-11.3,3.13-4.37.65-8.74.89-13.14.73-3.93-.15-7.82-.64-11.58-1.88-1.84-.61-3.6-1.39-5.17-2.55-1.13-.83-1.89-1.87-1.9-3.33,0-.13.01-.27.05-.39.04-.12.13-.22.22-.39.16,0,.36-.05.54,0,2.36.72,4.8,1.05,7.23,1.42,3.81.58,7.6,1.36,11.42,1.82,4.29.51,8.61.68,12.95.36,2.66-.19,5.31-.45,7.89-1.11,3.48-.89,6.93-1.89,9.97-3.93.08-.06.24,0,.46.02Z"/>
    </g>
  </g>
</svg>